<svg xmlns="http://www.w3.org/2000/svg" xmlns:xlink="http://www.w3.org/1999/xlink" version="1.1" id="Layer_1" x="0px" y="0px" width="52.399px" height="49.3px" viewBox="0 0 52.399 49.3" style="enable-background:new 0 0 52.399 49.3;" xml:space="preserve">
<g>
	<path d="M51.3,8.2V6.6L45,0h-1.8c-1.3,0-1.9,0.7-1.9,1.9v5.9c-4.2-4.1-9.2-6.3-15-6.3c-5.9,0-11,2.3-15.2,6.6V1.9   c0-1.2-0.7-1.9-2-1.9H7.3L1.1,6.6v1.6C1.1,9.4,1.7,10,3,10h6.1c0.1,0,0.2,0,0.2,0c-2.6,3.3-4.2,7.1-4.8,11.2H3.8   C1.3,21.2,0,22.5,0,25v2.7c0,2.5,1.3,3.7,3.8,3.7h1c1,4.1,2.9,7.7,5.8,10.9c4.3,4.6,9.6,7,15.7,7c6.1,0,11.3-2.4,15.7-7   c2.899-3.2,4.899-6.8,5.8-10.9h0.8c2.5,0,3.8-1.2,3.8-3.7V25c0-2.5-1.3-3.8-3.8-3.8h-0.5c-0.6-4.1-2.2-7.9-4.8-11.2h6.1   C50.6,10,51.3,9.4,51.3,8.2z M46.6,21.5c0.3,1.2,0.4,2.5,0.4,3.9c0,6.2-2.101,11.5-6.101,15.8c-4,4.4-8.899,6.6-14.6,6.6   s-10.5-2.2-14.6-6.6c-4-4.3-6.1-9.6-6.1-15.8c0-1.4,0.1-2.7,0.4-3.9v-0.1l0,0c0.1,0,0.2,0,0.3,0c5.3,0,10.1-1.8,14.6-5.5   c2.8-2.2,4.9-4.7,6.2-7.4c1.5,2.8,3.5,5.2,6.2,7.4c4.1,3.3,8.5,5.1,13.3,5.4C46.6,21.4,46.6,21.4,46.6,21.5z M1.5,25   c0-1.5,0.8-2.3,2.3-2.3h0.5c-0.1,0.9-0.2,1.8-0.2,2.7c0,1.6,0.2,3.1,0.4,4.5H3.8c-1.5,0-2.3-0.7-2.3-2.2V25z M48.399,22.7h0.2   c1.5,0,2.3,0.8,2.3,2.3v2.7c0,1.5-0.8,2.2-2.3,2.2h-0.5c0.3-1.4,0.4-2.9,0.4-4.5C48.5,24.5,48.399,23.6,48.399,22.7z"/>
	<path d="M21.1,22c-0.1,0-0.1,0-0.2,0c-0.5-0.5-1.1-0.8-1.8-0.8c-0.8,0-1.4,0.3-1.9,0.8c-0.6,0.6-0.8,1.2-0.8,1.9   c0,0.8,0.2,1.4,0.7,1.9c0,0.1,0,0.1,0.1,0.1c0.5,0.5,1.1,0.8,1.9,0.8c0.7,0,1.3-0.3,1.9-0.8c0.5-0.5,0.8-1.2,0.8-2   C21.8,23.2,21.5,22.6,21.1,22z M19.899,23.9c0,0.3,0,0.5-0.1,0.7c-0.2,0.1-0.5,0.3-0.7,0.3c-0.3,0-0.5-0.2-0.6-0.3   c-0.101-0.1-0.101-0.1-0.101-0.1c-0.1-0.1-0.3-0.3-0.3-0.6c0-0.2,0.2-0.5,0.3-0.6c0.2-0.1,0.4-0.3,0.7-0.3c0.2,0,0.5,0.2,0.6,0.3   C19.899,23.4,19.899,23.7,19.899,23.9z"/>
	<path d="M35.8,22c-0.1,0-0.1,0-0.2,0c-0.5-0.5-1.1-0.8-1.8-0.8c-0.8,0-1.4,0.3-1.9,0.8c-0.5,0.6-0.8,1.2-0.8,1.9   c0,0.8,0.2,1.4,0.8,1.9c0,0.1,0,0.1,0,0.1c0.5,0.5,1.101,0.8,1.9,0.8c0.7,0,1.3-0.3,1.9-0.8c0.5-0.5,0.8-1.2,0.8-2   C36.5,23.2,36.2,22.6,35.8,22z M34.399,23.3c0.101,0.1,0.2,0.4,0.2,0.6c0,0.3,0,0.5-0.1,0.7c-0.2,0.1-0.5,0.3-0.7,0.3   c-0.3,0-0.4-0.2-0.6-0.3c-0.1-0.1-0.1-0.1-0.1-0.1c-0.1-0.1-0.2-0.3-0.2-0.6c0-0.2,0.101-0.5,0.2-0.6c0.2-0.1,0.4-0.3,0.7-0.3   C34,23,34.3,23.2,34.399,23.3z"/>
	<path d="M21.1,38.6c-0.5-0.5-1-1-1.2-1.6c-0.2-0.2-0.399-0.3-0.6-0.4c-0.3,0-0.5,0-0.7,0.1c-0.2,0.2-0.3,0.3-0.4,0.6   c-0.1,0.2-0.1,0.4,0.1,0.7c0.4,0.6,0.9,1.2,1.6,1.9c1.9,1.9,4.2,2.9,7,2.9c2.7,0,5.101-1,7.101-2.9c0.6-0.7,1.1-1.3,1.5-1.9   c0.1-0.3,0.2-0.5,0.1-0.7c0-0.3-0.1-0.4-0.3-0.6c-0.3-0.1-0.5-0.1-0.8-0.1c-0.2,0.1-0.4,0.2-0.5,0.4c-0.4,0.6-0.7,1.1-1.2,1.6   c-1.7,1.6-3.6,2.4-5.9,2.4C24.6,41,22.7,40.2,21.1,38.6L21.1,38.6z"/>
</g>
</svg>